<?xml version="1.0" standalone="no"?><!DOCTYPE svg PUBLIC "-//W3C//DTD SVG 1.1//EN" "http://www.w3.org/Graphics/SVG/1.1/DTD/svg11.dtd"><svg width="200" height="200" viewBox="0 0 200 200" version="1.1" xmlns="http://www.w3.org/2000/svg" xmlns:xlink="http://www.w3.org/1999/xlink"><defs><style type="text/css"><![CDATA[

]]></style></defs><g class="transform-group"><g transform="scale(0.1953125, 0.1953125)"><path d="M336.234726 75.79004h297.824691c6.707473 0 13.209145 3.459709 17.681476 8.525893l181.882989 206.031324c4.694514 5.490073 7.120099 12.876382 7.120099 19.794775v429.75334c0 21.439135-7.526581 40.346201-19.7487 53.686403v0.233446l-0.612284 0.941974c-12.044987 13.109828-28.65855 21.40637-46.986097 21.406371H336.234726c-18.533348 0-35.191963-8.295519-47.820564-22.348345-11.731678-13.574672-19.084199-32.481738-19.084199-53.920873V152.540483c0-21.227191 7.352521-40.115827 19.084199-53.920872 12.627578-14.303678 29.287216-22.829571 47.820564-22.829571z m454.292799 251.867598H676.162606c-15.87227 0-30.136017-6.899963-40.262243-19.11901l-1.260403-0.92764c-9.745341-11.773657-15.87227-27.860944-15.87227-44.69669V132.957653H336.234726c-4.692466 0-9.164798 2.048795-11.776729 5.760379-3.276433 3.441279-5.495193 8.507463-5.495193 13.822451v587.353865c0 5.296559 2.218759 10.129298 5.495193 13.840882h-0.425937c3.037868 3.459709 7.510199 5.760379 12.202666 5.760378h437.163197c4.866527 0 9.319404-2.301694 11.983554-5.760378h0.421841c2.647767-3.711584 4.724207-8.544323 4.724207-13.840882v-412.23671z m-25.257203-34.333946L648.906778 161.976611v100.936663c0 7.579823 2.834115 15.213912 7.322828 20.740845l0.819109 0.67986c4.878814 5.530005 11.399939 8.989713 19.113891 8.989713h89.107716zM231.118563 842.401651c0 8.639544 6.511911 15.796503 14.666133 15.796503h197.411234c8.260707 0 14.88934-7.156958 14.88934-15.796503 0-8.838178-6.628634-15.985922-14.88934-15.985922h-183.101413V565.965924c0-8.766506-6.265154-15.983874-14.309821-15.983874-8.154223 0-14.666133 7.217368-14.666133 15.983874V842.401651zM185.839282 882.719183c0 8.066169 6.4986 14.749068 14.637465 14.749069h197.016014c8.244325 0 14.859648-6.6829 14.859648-14.749069 0-8.252516-6.615323-14.9262-14.859648-14.9262H214.757899v-243.183003c0-8.184939-6.252868-14.924152-14.281152-14.924153-8.137841 0-14.637465 6.739213-14.637465 14.924153v258.109203zM675.405955 474.383477c-6.771978-7.419073-15.008111-13.804022-24.267107-18.424816-4.752876-2.05289-9.7136-4.102708-14.927224-5.387685-4.863455-0.74846-10.045339-1.53378-15.240533-1.53378-14.566817 0-30.045915 5.121474-42.24858 14.092757-4.063801-2.549474-8.123506-5.135809-12.879453-7.170268-4.518406-2.05289-9.478106-4.102708-14.469548-5.387685-5.166525-0.74846-10.267522-1.53378-15.462716-1.53378-4.756971 0-9.935783 0.78532-15.021422 1.53378-5.198266 1.286-10.377078 3.334795-14.692754 5.387685-4.282912 2.03446-8.707121 4.620794-12.644984 7.170268-3.953221-2.549474-8.362071-5.135809-12.769898-7.170268-4.627962-2.05289-9.383909-4.102708-14.566816-5.387685-5.397923-0.74846-10.374006-1.53378-15.256915-1.53378-14.785928 0-30.155471 5.121474-42.908986 14.859647-4.298271 3.565169-7.904395 6.918393-11.541236 10.487658-6.533412 7.667877-6.533412 19.422081 0 26.859584 6.78836 7.170269 17.19513 7.170269 23.731614 0 8.139888-9.453533 18.987953-14.323132 30.719632-14.323132 3.402371 0 6.204745 0.51911 8.613947 1.018766 3.021486 0.533444 5.747068 1.53378 8.564801 2.549474 4.740589 2.301694 9.148415 5.902699 12.879453 10.238853l0.331739 0.515015h0.676788l0.454605 1.037195h0.331739v0.496585l0.457677 0.251876h0.345049l0.441295 0.515014h0.235493l0.34505 0.51911h0.331739l0.219111 0.515014h0.348121l0.454605 0.51911h0.441295l0.457676 0.248804 0.34505 0.270306h0.331739l0.438223 0.496584h1.135488l0.34505 0.233446H491.186459l0.312285 0.533444H495.4663l0.454605-0.533444h1.560401l0.37679-0.233446h1.227638l0.454605-0.496584h0.331739l0.125938-0.270306h0.331739l0.345049-0.248804h0.441295l0.328667-0.51911h0.457677l0.454605-0.515014 0.206825-0.51911h0.454605l0.364503-0.515014h0.219112l0.441294-0.251876 0.454605-0.496585h0.206825l0.251876-1.037195h0.912282v-0.515015h0.31638c3.528309-4.336154 8.029309-7.938183 12.895836-10.238853 2.599645-1.015694 5.178812-2.01603 8.345689-2.549474 2.599645-0.50068 5.195194-1.018766 8.471627-1.018766 3.511927 0 6.330683 0.51911 9.052171 1.018766 2.599645 0.533444 5.624202 1.53378 8.017022 2.549474a47.80623 47.80623 0 0 1 7.445694 4.620795c1.921833 1.801014 3.511927 3.316365 5.417377 5.366183h0.235494l0.425936 0.76689c7.023853 7.170269 17.400931 7.170269 23.857552 0 8.233062-9.453533 18.971571-14.323132 30.610075-14.323132 3.621482 0 6.440239 0.51911 8.800295 1.018766 2.834115 0.533444 5.876078 1.53378 8.252516 2.549474 5.178812 2.567904 9.935783 6.421809 13.902315 10.753868 6.330683 7.170269 17.0395 7.170269 23.479738 0 6.576415-7.436479 6.576415-19.191707 0.011263-26.859584z" fill="#272636"></path></g></g></svg>