<?xml version="1.0" standalone="no"?><!DOCTYPE svg PUBLIC "-//W3C//DTD SVG 1.1//EN" "http://www.w3.org/Graphics/SVG/1.1/DTD/svg11.dtd"><svg width="200" height="200" viewBox="0 0 200 200" version="1.1" xmlns="http://www.w3.org/2000/svg" xmlns:xlink="http://www.w3.org/1999/xlink"><defs><style type="text/css"><![CDATA[

]]></style></defs><g class="transform-group"><g transform="scale(0.1953125, 0.1953125)"><path d="M703.992833 467.459964c0-17.549394 11.01803-31.744541 24.402259-31.74454 13.698562 0 24.612155 14.195146 24.612155 31.74454v312.118131c0 18.055194-10.914618 31.761947-24.612155 31.761947H285.26469c-13.178428 0-24.417617-13.705729-24.417617-31.761947V467.459964c0-17.549394 11.239189-31.744541 24.417617-31.74454 13.798903 0 24.610108 14.195146 24.610108 31.74454V747.040044h38.515494V453.261747c0-10.33817 6.840578-18.832323 14.763403-18.832323h287.649319c8.143984 0 14.699922 8.494153 14.699922 18.832323V747.040044h38.488873V467.459964h0.001024zM378.048155 750.633881h257.874734v-48.039676H378.048155v48.039676z m0-246.775817h257.874734v-30.715536H378.048155v30.715536z m-155.445247-30.873214l284.477323-218.933304 283.968452 218.933304c11.618027 9.308141 26.797127 4.384277 33.547602-11.117347 6.948086-15.213912 3.068584-35.095717-8.740909-43.354376L519.578799 189.765882c-7.246036-5.648775-17.065097-6.176076-25.20908 0L197.705089 418.513127c-11.420417 8.258659-15.088998 28.140464-8.546371 43.354376 6.945014 15.501624 21.839474 20.425488 33.44419 11.117347z m296.747565-299.321612h0.28464-0.28464z" fill="#272636"></path></g></g></svg>